<?xml version="1.0" standalone="no"?>
<!DOCTYPE svg PUBLIC "-//W3C//DTD SVG 20010904//EN"
 "http://www.w3.org/TR/2001/REC-SVG-20010904/DTD/svg10.dtd">
<svg version="1.0" xmlns="http://www.w3.org/2000/svg"
 width="256.000000pt" height="256.000000pt" viewBox="0 0 256.000000 256.000000"
 preserveAspectRatio="xMidYMid meet">
<metadata>
Created by potrace 1.11, written by Peter Selinger 2001-2013
</metadata>
<g transform="translate(0.000000,256.000000) scale(0.100000,-0.100000)"
fill="#000000" stroke="none">
<path d="M1117 2544 c-206 -33 -353 -121 -437 -262 -39 -68 -93 -213 -105
-287 -4 -22 -8 -47 -10 -55 -3 -14 -12 -80 -20 -145 -2 -16 -7 -86 -11 -155
-3 -69 -8 -127 -11 -130 -2 -2 -61 -5 -131 -5 -71 -1 -133 -5 -139 -8 -14 -9
-16 -756 -2 -855 38 -271 240 -511 505 -601 99 -33 105 -33 504 -36 423 -3
464 1 597 56 220 92 398 305 449 539 12 58 17 881 5 893 -6 6 -65 11 -140 12
-72 0 -132 3 -134 5 -2 3 -7 68 -11 145 -11 226 -39 385 -93 520 -74 186 -190
288 -390 346 -122 34 -293 44 -426 23z m362 -55 c98 -21 227 -82 283 -134 52
-48 103 -124 128 -193 27 -71 58 -189 66 -251 3 -25 7 -53 9 -61 5 -19 18
-218 19 -290 l1 -55 -702 0 c-775 0 -715 -5 -708 62 2 15 6 77 10 138 20 350
108 581 260 688 152 106 407 145 634 96z m792 -1046 c4 -83 0 -752 -5 -790
-34 -239 -206 -459 -429 -550 -119 -48 -166 -53 -547 -53 -391 -1 -412 1 -520
37 -243 80 -425 289 -469 541 -12 62 -13 136 -12 555 l1 277 990 0 c936 0 990
-1 991 -17z"/>
<path d="M1220 1128 c-146 -37 -195 -168 -93 -248 l26 -21 1 -174 c0 -149 2
-174 15 -177 9 -2 66 -3 126 -3 l110 0 1 178 2 177 26 21 c84 66 66 179 -37
227 -50 24 -128 33 -177 20z m139 -54 c92 -37 110 -118 35 -165 l-34 -21 0
-169 0 -169 -80 0 -80 0 0 169 0 169 -27 18 c-38 24 -52 44 -53 74 -1 82 135
136 239 94z"/>
</g>
</svg>
